{
    "asset": {
        "copyright": "2019 (c) Adobe Inc.",
        "generator": "Adobe Dimension - 588ee4ece1d9e7aad8162c6775b08a7e07e8bf96",
        "version": "2.0"
    },
    "accessors": [
        {
            "bufferView": 0,
            "componentType": 5126,
            "count": 3719,
            "type": "VEC3",
            "max": [
                0.09999999403953552,
                0.19999998807907105,
                0.10000000894069672
            ],
            "min": [
                -0.1000000387430191,
                0.0,
                -0.1000000536441803
            ]
        },
        {
            "bufferView": 1,
            "componentType": 5126,
            "count": 3719,
            "type": "VEC3"
        },
        {
            "bufferView": 2,
            "componentType": 5126,
            "count": 3719,
            "type": "VEC2"
        },
        {
            "bufferView": 3,
            "componentType": 5125,
            "count": 21240,
            "type": "SCALAR",
            "max": [
                3718.0
            ],
            "min": [
                0.0
            ]
        }
    ],
    "bufferViews": [
        {
            "buffer": 0,
            "byteOffset": 0,
            "byteLength": 44628,
            "target": 34962
        },
        {
            "buffer": 0,
            "byteOffset": 44628,
            "byteLength": 44628,
            "target": 34962
        },
        {
            "buffer": 0,
            "byteOffset": 89256,
            "byteLength": 29752,
            "target": 34962
        },
        {
            "buffer": 0,
            "byteOffset": 119008,
            "byteLength": 84960,
            "target": 34963
        }
    ],
    "buffers": [
        {
            "byteLength": 203968,
            "uri": "particle_binary.bin"
        }
    ],
    "cameras": [
        {
            "perspective": {
                "znear": 0.000010000000656873454,
                "yfov": 0.6024156808853149,
                "zfar": 2.0,
                "aspectRatio": 1.3333333730697632
            },
            "type": "perspective",
            "name": "render_camera"
        }
    ],
    "materials": [
        {
            "pbrMetallicRoughness": {
                "baseColorFactor": [
                    0.24228119850158692,
                    0.1247718408703804,
                    0.05286065489053726,
                    1.0
                ],
                "metallicFactor": 0.10999999940395355,
                "roughnessFactor": 0.6600000262260437
            },
            "emissiveFactor": [
                0.04361061751842499,
                0.022458931431174279,
                0.009514918550848961
            ],
            "name": "Kugelmaterial"
        }
    ],
    "meshes": [
        {
            "name": "sphere_N3D",
            "primitives": [
                {
                    "attributes": {
                        "POSITION": 0,
                        "NORMAL": 1,
                        "TEXCOORD_0": 2
                    },
                    "indices": 3,
                    "material": 0
                }
            ]
        }
    ],
    "nodes": [
        {
            "translation": [
                0.6134016513824463,
                0.5783456563949585,
                0.507514238357544
            ],
            "rotation": [
                -0.30983060598373415,
                0.385435551404953,
                0.13919273018836976,
                0.8579450845718384
            ],
            "camera": 0,
            "name": "render_camera_n3d"
        },
        {
            "mesh": 0,
            "name": "Kugel"
        }
    ],
    "scenes": [
        {
            "nodes": [
                0,
                1
            ],
            "name": "scene"
        }
    ],
    "scene": 0,
    "extensions": {
        "KHR_xmp": {
            "packets": [
                {
                    "dc:date": "2019-12-13T14:16:44.43+01:00",
                    "dc:format": "model/gltf+json",
                    "dc:title": "particle.dn",
                    "xmp:CreatorTool": "AdobeDCXTest"
                }
            ]
        }
    },
    "extensionsUsed": [
        "KHR_xmp"
    ]
}