{
    "asset": {
        "copyright": "2019 (c) Adobe Inc.",
        "generator": "Adobe Dimension - 588ee4ece1d9e7aad8162c6775b08a7e07e8bf96",
        "version": "2.0"
    },
    "accessors": [
        {
            "bufferView": 0,
            "componentType": 5126,
            "count": 60,
            "type": "VEC3",
            "max": [
                0.09341723471879959,
                0.18683448433876038,
                0.09341723471879959
            ],
            "min": [
                -0.09341723471879959,
                0.0,
                -0.09341723471879959
            ]
        },
        {
            "bufferView": 1,
            "componentType": 5126,
            "count": 60,
            "type": "VEC3"
        },
        {
            "bufferView": 2,
            "componentType": 5126,
            "count": 60,
            "type": "VEC2"
        },
        {
            "bufferView": 3,
            "componentType": 5125,
            "count": 108,
            "type": "SCALAR",
            "max": [
                59.0
            ],
            "min": [
                0.0
            ]
        }
    ],
    "bufferViews": [
        {
            "buffer": 0,
            "byteOffset": 0,
            "byteLength": 720,
            "target": 34962
        },
        {
            "buffer": 0,
            "byteOffset": 720,
            "byteLength": 720,
            "target": 34962
        },
        {
            "buffer": 0,
            "byteOffset": 1440,
            "byteLength": 480,
            "target": 34962
        },
        {
            "buffer": 0,
            "byteOffset": 1920,
            "byteLength": 432,
            "target": 34963
        }
    ],
    "buffers": [
        {
            "byteLength": 2352,
            "uri": "particle3_binary.bin"
        }
    ],
    "cameras": [
        {
            "perspective": {
                "znear": 0.000010000000656873454,
                "yfov": 0.6024156808853149,
                "zfar": 2.0,
                "aspectRatio": 1.3333333730697632
            },
            "type": "perspective",
            "name": "render_camera"
        }
    ],
    "materials": [
        {
            "pbrMetallicRoughness": {
                "baseColorFactor": [
                    0.24228119850158692,
                    0.1247718408703804,
                    0.05286065489053726,
                    1.0
                ],
                "metallicFactor": 0.0,
                "roughnessFactor": 0.503000020980835
            },
            "name": "Dodekaedermaterial"
        }
    ],
    "meshes": [
        {
            "name": "MODEL_DODECAHEDRON_PART_1_N3D",
            "primitives": [
                {
                    "attributes": {
                        "POSITION": 0,
                        "NORMAL": 1,
                        "TEXCOORD_0": 2
                    },
                    "indices": 3,
                    "material": 0
                }
            ]
        }
    ],
    "nodes": [
        {
            "translation": [
                0.6038716435432434,
                0.5677580833435059,
                0.49904850125312807
            ],
            "rotation": [
                -0.30983060598373415,
                0.385435551404953,
                0.13919273018836976,
                0.8579450845718384
            ],
            "camera": 0,
            "name": "render_camera_n3d"
        },
        {
            "mesh": 0,
            "name": "Dodekaeder"
        }
    ],
    "scenes": [
        {
            "nodes": [
                0,
                1
            ],
            "name": "scene"
        }
    ],
    "scene": 0,
    "extensions": {
        "KHR_xmp": {
            "packets": [
                {
                    "dc:date": "2019-12-13T14:16:44.43+01:00",
                    "dc:format": "model/gltf+json",
                    "dc:title": "particle.dn",
                    "xmp:CreatorTool": "AdobeDCXTest"
                }
            ]
        }
    },
    "extensionsUsed": [
        "KHR_xmp"
    ]
}